<?xml version="1.0" encoding="UTF-8"?>
<svg width="108px" height="108px" viewBox="0 0 108 108" version="1.1" xmlns="http://www.w3.org/2000/svg" xmlns:xlink="http://www.w3.org/1999/xlink">
    <title>foreground</title>
    <defs>
        <linearGradient x1="75.4709201%" y1="31.4713542%" x2="0%" y2="100%" id="linearGradient-1">
            <stop stop-color="#EEEEEE" offset="0%"></stop>
            <stop stop-color="#D5D5D5" offset="100%"></stop>
        </linearGradient>
        <linearGradient x1="100%" y1="3.21072049%" x2="0%" y2="97.8320312%" id="linearGradient-2">
            <stop stop-color="#C2C2C2" offset="0%"></stop>
            <stop stop-color="#EBEBEB" offset="100%"></stop>
        </linearGradient>
    </defs>
    <g id="foreground" stroke="none" stroke-width="1" fill="none" fill-rule="evenodd">
        <rect id="Rectangle" stroke="url(#linearGradient-2)" fill="url(#linearGradient-1)" x="9" y="9" width="90" height="90" rx="7"></rect>
        <rect id="Rectangle" fill="#7D7A7A" x="92" y="69" width="2" height="20" rx="1"></rect>
        <rect id="Rectangle" fill="#B9B8B8" x="17" y="63" width="29" height="29" rx="3"></rect>
        <circle id="Oval" fill="#7D7A7A" cx="23" cy="83" r="3"></circle>
        <circle id="Oval" fill="#7D7A7A" cx="28.5" cy="86.5" r="1.5"></circle>
        <circle id="Oval" fill="#FFFFFF" cx="54" cy="54" r="36"></circle>
        <circle id="Oval" fill="#323330" cx="54" cy="54" r="34"></circle>
        <path d="M39,46 C42.5120723,40.0350912 47.4744098,36.9600434 54,37" id="Line-4" stroke="#979797" stroke-linecap="round" transform="translate(46.500000, 41.499808) rotate(-1.000000) translate(-46.500000, -41.499808) "></path>
        <path d="M36,43 C40.0071663,36.4498181 45.687453,33.1428864 53,33" id="Line-3" stroke="#979797" stroke-linecap="round" transform="translate(44.500000, 38.000000) rotate(-1.534455) translate(-44.500000, -38.000000) "></path>
        <path d="M32,41 C36.8926894,33.3335976 43.4857057,29.1813793 52,29" id="Line-2" stroke="#979797" stroke-linecap="round" transform="translate(42.000000, 35.000000) rotate(-2.000000) translate(-42.000000, -35.000000) "></path>
        <path d="M28,38 C33.5371605,29.4686698 41.1547072,24.7128594 51,24" id="Line" stroke="#979797" stroke-linecap="round" transform="translate(39.500000, 31.000000) rotate(-1.000000) translate(-39.500000, -31.000000) "></path>
        <g id="Group" transform="translate(67.000000, 73.000000) scale(-1, -1) translate(-67.000000, -73.000000) translate(53.000000, 61.000000)" stroke="#979797" stroke-linecap="round">
            <path d="M12,23 C15.5120723,17.0350912 20.4744098,13.9600434 27,14" id="Line-4" transform="translate(19.500000, 18.499808) rotate(-1.000000) translate(-19.500000, -18.499808) "></path>
            <path d="M9,20 C13.0071663,13.4498181 18.687453,10.1428864 26,10" id="Line-3" transform="translate(17.500000, 15.000000) rotate(-1.534455) translate(-17.500000, -15.000000) "></path>
            <path d="M5,18 C9.8926894,10.3335976 16.4857057,6.18137929 25,6" id="Line-2" transform="translate(15.000000, 12.000000) rotate(-2.000000) translate(-15.000000, -12.000000) "></path>
            <path d="M1,15 C6.53716051,6.46866977 14.1547072,1.7128594 24,1" id="Line" transform="translate(12.500000, 8.000000) rotate(-1.000000) translate(-12.500000, -8.000000) "></path>
        </g>
        <circle id="Oval" fill="#F5B500" cx="54" cy="54" r="13"></circle>
        <path d="M46.48,63.5 C48.64,63.5 50.38,62.3866667 51.7,60.16 C51.7933333,60 51.89,59.8266667 51.99,59.64 C52.09,59.4533333 52.2033333,59.22 52.33,58.94 C52.4566667,58.66 52.6066667,58.3133333 52.78,57.9 C52.9533333,57.4866667 53.1666667,56.96 53.42,56.32 L53.42,56.32 L55.8,50.44 L56.08,51.66 C56.24,52.38 56.58,52.74 57.1,52.74 C57.5133333,52.74 57.94,52.5 58.38,52.02 L58.38,52.02 L60.26,50 L57.76,55.86 C57.6,56.2333333 57.4933333,56.5233333 57.44,56.73 C57.3866667,56.9366667 57.36,57.1466667 57.36,57.36 C57.36,57.88 57.54,58.2833333 57.9,58.57 C58.26,58.8566667 58.78,59 59.46,59 L59.46,59 L61.32,59 C61.8933333,59 62.3366667,58.8766667 62.65,58.63 C62.9633333,58.3833333 63.12,58.0333333 63.12,57.58 C63.12,57.26 63.0133333,57.0266667 62.8,56.88 C62.5866667,56.7333333 62.2466667,56.66 61.78,56.66 L61.78,56.66 L60.2,56.66 L63.7,48 C63.7933333,47.7866667 63.8633333,47.6133333 63.91,47.48 C63.9566667,47.3466667 63.9933333,47.24 64.02,47.16 C64.0466667,47.08 64.0633333,47.01 64.07,46.95 C64.0766667,46.89 64.08,46.82 64.08,46.74 C64.08,46.3933333 63.9433333,46.1033333 63.67,45.87 C63.3966667,45.6366667 63.0666667,45.52 62.68,45.52 C62.3866667,45.52 62.1,45.5933333 61.82,45.74 C61.54,45.8866667 61.2266667,46.1333333 60.88,46.48 L60.88,46.48 L57.96,49.36 L57.36,47.1 C57.2133333,46.5133333 57.0333333,46.1033333 56.82,45.87 C56.6066667,45.6366667 56.3133333,45.52 55.94,45.52 C55.6333333,45.52 55.3766667,45.6166667 55.17,45.81 C54.9633333,46.0033333 54.7666667,46.3266667 54.58,46.78 L54.58,46.78 L50.7,56.32 C50.3533333,57.1866667 50.0233333,57.9133333 49.71,58.5 C49.3966667,59.0866667 49.0866667,59.56 48.78,59.92 C48.4733333,60.28 48.1533333,60.5366667 47.82,60.69 C47.4866667,60.8433333 47.12,60.92 46.72,60.92 C46.0533333,60.92 45.5333333,60.71 45.16,60.29 C44.7866667,59.87 44.6,59.28 44.6,58.52 C44.6,57.84 44.7833333,57.1866667 45.15,56.56 C45.5166667,55.9333333 46.02,55.42 46.66,55.02 C47.4466667,54.5133333 48.52,54.1933333 49.88,54.06 C50.1866667,54.0333333 50.4066667,54.0066667 50.54,53.98 C50.6733333,53.9533333 50.7933333,53.9066667 50.9,53.84 C51.0866667,53.7466667 51.2366667,53.6033333 51.35,53.41 C51.4633333,53.2166667 51.52,53.0133333 51.52,52.8 C51.52,52.4266667 51.36,52.1266667 51.04,51.9 C50.72,51.6733333 50.2933333,51.56 49.76,51.56 C48.6933333,51.56 47.6833333,51.7566667 46.73,52.15 C45.7766667,52.5433333 44.94,53.07 44.22,53.73 C43.5,54.39 42.9266667,55.16 42.5,56.04 C42.0733333,56.92 41.86,57.8466667 41.86,58.82 C41.86,59.5133333 41.97,60.1466667 42.19,60.72 C42.41,61.2933333 42.7233333,61.7866667 43.13,62.2 C43.5366667,62.6133333 44.0233333,62.9333333 44.59,63.16 C45.1566667,63.3866667 45.7866667,63.5 46.48,63.5 Z" id="M" fill="#323330" fill-rule="nonzero"></path>
        <rect id="Rectangle" fill="#323330" x="60" y="56" width="17" height="3"></rect>
        <circle id="Oval" fill="#000000" cx="88" cy="20" r="6"></circle>
        <rect id="Rectangle" fill="#535353" x="88" y="12" width="1.51515152" height="31"></rect>
        <rect id="Rectangle" fill="#BABABA" x="86.4848485" y="12" width="1.51515152" height="31"></rect>
        <rect id="Rectangle" fill="#9D9D9D" x="88" y="12" width="1" height="31"></rect>
        <rect id="Rectangle" fill="#535353" transform="translate(83.633013, 49.223017) rotate(40.000000) translate(-83.633013, -49.223017) " x="83.1330127" y="40.2230165" width="1" height="18"></rect>
        <rect id="Rectangle" fill="#BABABA" transform="translate(81.906080, 48.740004) rotate(40.000000) translate(-81.906080, -48.740004) " x="81.1485041" y="40.2400038" width="1.51515152" height="17"></rect>
        <rect id="Rectangle" fill="#9D9D9D" transform="translate(82.828040, 49.083623) rotate(40.000000) translate(-82.828040, -49.083623) " x="82.449252" y="40.0836226" width="1" height="18"></rect>
        <rect id="Rectangle" fill="#D8D8D8" transform="translate(77.500000, 54.500000) rotate(40.000000) translate(-77.500000, -54.500000) " x="74" y="49" width="7" height="11" rx="1"></rect>
        <circle id="Oval" fill="#D8D8D8" cx="88" cy="20" r="4"></circle>
        <rect id="Rectangle" fill="#FFFFFF" x="90" y="77" width="6" height="3"></rect>
    </g>
</svg>